<svg xmlns="http://www.w3.org/2000/svg" xmlns:xlink="http://www.w3.org/1999/xlink" version="1.1" id="Layer_1" x="0px" y="0px" viewBox="0 0 100 100" enable-background="new 0 0 100 100" xml:space="preserve">
<path d="M65.901,7.223c0,0,0.724,1.881,0.144,2.966c0,0,0.796,1.883,1.086,1.955c0,0,0.651,0.796-1.012,0.796  c0,0,0.289,0.868,0,1.014c0,0,0.506,0.506-0.507,0.724c0,0-0.435,0.579-0.29,0.796c0,0-0.145,1.52-3.111,0.507l-1.159,2.17  c0,0-0.145,0.87,0.146,1.085c0,0,0.651,0.652,0.507,1.159c0,0,6.514,5.21,4.197,9.481c0,0,0.434,3.328,0.289,4.052  c0,0,3.474-0.868,7.672-4.704c0,0,0.65-2.316,1.303-2.75c0,0,0.724-0.723,1.014-1.085c0,0,0.247-0.149,0.523-0.236  c0.235-0.072,0.524-0.017,0.761-0.398c0,0,0.705-0.217,0.361,0.562l1.085-0.652c0,0,0.796-0.252,0.543,0.597l-0.397,0.435  c0,0,0.904,0.146,0.38,0.886c0,0,0.471,0.199,0.416,0.615c0,0,0.597-0.742,0.724-0.252c0,0,0.38,0.94-0.181,1.465  c0,0-2.135,1.557-2.569,2.08c0,0-0.435,0.58-1.448,0.886c0,0-0.65,0.127-1.537,0.923c0,0-5.772,4.795-8.757,6.333  c0,0,0.688,1.544,0.326,2.654l-0.073,2.025c0,0,1.304,3.812,2.557,4.656c0,0,3.125,2.75,5.26,11.145c0,0,1.954,5.899,3.112,6.334  c0,0,1.014,1.447,1.122,3.654l0.216,3.184c0,0,0.073,0.58,0.688,1.557c0,0,4.024,11.413,6.848,13.657c0,0,6.874,2.242,9.48,0.217  c0,0,3.328-1.592,2.171,2.025c0,0-2.099,3.258-5.717,4.415c0,0-1.954,0.58-2.969,1.883c0,0-2.099,2.17-4.486,2.098  c0,0-2-1.449-2.099-2.822c-0.071-1.013-0.146-2.531-1.303-4.632l-2.243-3.618c0,0-2.288-2.259-3.3-3.778  c0,0-3.258-3.618-3.981-11.508c0,0-3.401-6.006-5.21-6.946c0,0-2.534-2.461-4.922-7.961c0,0-2.604,8.468-7.236,12.882  c0,0-2.099,3.039-2.678,4.27c0,0-1.159,2.171-4.632,1.375c0,0-4.199-1.086-7.093-1.157c0,0-6.006-0.796-9.19-1.521  c0,0-6.514-1.013-9.046,2.171c0,0-3.98,4.198-4.487,6.947c0,0-1.809,2.316-2.316-0.216c0,0-0.434-5.719,1.013-8.323  c0,0,0.579-1.302,0.651-3.401c0,0,0.651-4.993,2.678-4.559l2.461,0.434c0,0,0.216,0.941,2.388,1.158l8.975,0.435  c0,0,6.73-1.737,12.882,0.94c0,0,0.94-0.579,1.954-2.823c0,0,1.737-7.382,3.981-9.625c0,0,0.939-1.953,1.085-2.822l-0.724-0.289  c0,0-1.882-3.547,3.111-9.988c0,0,1.882-2.823-3.908-20.842c0,0-1.085-4.125,0-5.284c0,0,0.29-1.809-1.374,0.29l0.072-0.65  c0,0-0.579,1.085-0.579,0.868s0.072-0.579,0.072-0.579l-0.363,0.724L49.69,15.4l-1.085,2.1c0,0-0.435-1.448,0.796-2.75l-0.072-0.507  l-0.941,1.23l0.072,0.651L48.243,17.5c0,0-1.448,0.361-0.941-1.23c0,0-0.796-1.231,0.072-2.244c0.869-1.013,0.289,0,0.289,0  s-0.868-0.361-1.446,2.026c0,0,0.289,0.507,0.94,1.52c0,0-2.677,2.46-1.664-3.908c0,0-0.579,0.724-0.361,2.749  c0,0-2.679-0.433,0.505-4.632c0,0,1.666-1.302,2.244-0.722l0.796-0.724c0,0-0.868-0.435-2.027,0.579c0,0-0.144-1.013,1.376-1.52  c0,0,0.796-2.823,1.664-3.256c0,0,5.067-4.777,8.685-4.56c0,0,3.256-0.361,5.717,1.881C64.092,3.459,66.77,5.34,65.901,7.223z"/>
<path d="M51.355,16.341c0,0,0.216,0.363-1.883,0.941c0,0-5.645,1.085-9.118,3.401l-0.724,0.94c0,0-0.361,0.941,0.724,1.304  c0,0,2.968,4.125,6.802,7.092c0,0,2.823,2.172,2.823,2.677c0,0,1.303,1.303,1.883,1.303c0,0,3.038,1.013,3.545,2.75l-0.361-6.152  c0,0-0.435,1.809-3.764-1.303c0,0-4.27-4.559-5.283-6.73l4.269-0.65c0,0,0.796,3.762,2.172,3.836c0,0-1.448-1.376-0.507-3.547  L51.355,16.341z"/>
</svg>
